<svg width="200" height="200" viewBox="0 0 200 200" fill="none" xmlns="http://www.w3.org/2000/svg">
<path d="M100 0C62.025 0 31.25 30.775 31.25 68.75C31.25 93.9437 54.3 120.644 62.6938 144.094C75.2125 179.062 73.825 200 100 200C126.562 200 124.781 179.162 137.306 144.237C145.725 120.737 168.75 93.75 168.75 68.75C168.75 30.775 137.963 0 100 0ZM116.2 169.85L85.2125 173.719C83.8769 169.804 82.6308 165.859 81.475 161.887L81.4188 161.694L120.094 156.863C119.544 158.706 118.956 160.644 118.444 162.381C117.625 165.188 116.894 167.625 116.2 169.85ZM79.6 155.675C78.3853 151.679 77.1038 147.703 75.7563 143.75H124.294C123.525 145.994 122.756 148.244 122.094 150.369L79.6 155.675ZM100 187.5C93.6688 187.5 90.7563 186.769 87.5188 179.688L114.006 176.369C110.169 186.706 107.375 187.5 100 187.5ZM129.2 131.25H70.8687C67.7562 124.5 64.0187 117.75 60.3312 111.144C52.175 96.55 43.75 81.4563 43.75 68.75C43.75 37.7313 68.9813 12.5 100 12.5C131.019 12.5 156.25 37.7313 156.25 68.75C156.25 81.3625 147.812 96.5375 139.65 111.219C136 117.8 132.288 124.537 129.2 131.25Z" fill="#4EB2D4"/>
<path d="M100 31.25C79.3188 31.25 62.5 48.0688 62.5 68.75C62.5 69.5788 62.8292 70.3737 63.4153 70.9597C64.0013 71.5458 64.7962 71.875 65.625 71.875C66.4538 71.875 67.2487 71.5458 67.8347 70.9597C68.4208 70.3737 68.75 69.5788 68.75 68.75C68.75 51.5187 82.7687 37.5 100 37.5C100.829 37.5 101.624 37.1708 102.21 36.5847C102.796 35.9987 103.125 35.2038 103.125 34.375C103.125 33.5462 102.796 32.7513 102.21 32.1653C101.624 31.5792 100.829 31.25 100 31.25Z" fill="#4EB2D4"/>
</svg>
